<svg width="68" height="68" viewBox="0 0 68 68" fill="none" xmlns="http://www.w3.org/2000/svg">
<path d="M17 46.75H8.5V59.5H17V46.75ZM38.25 29.75H29.75V59.5H38.25V29.75ZM59.5 8.5V59.5H51V8.5H59.5ZM51 4.25C49.8728 4.25 48.7918 4.69777 47.9948 5.4948C47.1978 6.29183 46.75 7.37283 46.75 8.5V59.5C46.75 60.6272 47.1978 61.7082 47.9948 62.5052C48.7918 63.3022 49.8728 63.75 51 63.75H59.5C60.6272 63.75 61.7082 63.3022 62.5052 62.5052C63.3022 61.7082 63.75 60.6272 63.75 59.5V8.5C63.75 7.37283 63.3022 6.29183 62.5052 5.4948C61.7082 4.69777 60.6272 4.25 59.5 4.25H51ZM25.5 29.75C25.5 28.6228 25.9478 27.5418 26.7448 26.7448C27.5418 25.9478 28.6228 25.5 29.75 25.5H38.25C39.3772 25.5 40.4582 25.9478 41.2552 26.7448C42.0522 27.5418 42.5 28.6228 42.5 29.75V59.5C42.5 60.6272 42.0522 61.7082 41.2552 62.5052C40.4582 63.3022 39.3772 63.75 38.25 63.75H29.75C28.6228 63.75 27.5418 63.3022 26.7448 62.5052C25.9478 61.7082 25.5 60.6272 25.5 59.5V29.75ZM4.25 46.75C4.25 45.6228 4.69777 44.5418 5.4948 43.7448C6.29183 42.9478 7.37283 42.5 8.5 42.5H17C18.1272 42.5 19.2082 42.9478 20.0052 43.7448C20.8022 44.5418 21.25 45.6228 21.25 46.75V59.5C21.25 60.6272 20.8022 61.7082 20.0052 62.5052C19.2082 63.3022 18.1272 63.75 17 63.75H8.5C7.37283 63.75 6.29183 63.3022 5.4948 62.5052C4.69777 61.7082 4.25 60.6272 4.25 59.5V46.75Z" fill="#222222"/>
</svg>
