<svg width="59" height="51" viewBox="0 0 59 51" fill="none" xmlns="http://www.w3.org/2000/svg">
<path fill-rule="evenodd" clip-rule="evenodd" d="M25.7759 10.6566V20.8132L22.063 17.1163L18.35 13.4194L15.7587 16.0022L13.1674 18.5849L20.1926 25.5657C25.4399 30.7799 27.3058 32.5974 27.5654 32.7477C28.1881 33.1082 28.7339 33.259 29.4267 33.2622C30.3123 33.2662 30.9808 33.0446 31.6944 32.5105C31.8645 32.3831 35.0959 29.1976 38.8752 25.4316L45.7467 18.5843L43.1557 16.0019L40.5647 13.4194L36.8518 17.1163L33.1388 20.8132V10.6566V0.5H29.4574H25.7759V10.6566ZM0.0217822 37.3848C0.043012 41.9468 0.0472454 42.0891 0.177324 42.6448C0.890363 45.6901 2.75858 48.0479 5.47409 49.3297C6.14467 49.6462 6.82936 49.8799 7.62738 50.0647L8.19691 50.1966L29.1813 50.2147C47.9161 50.2308 50.2361 50.2226 50.8236 50.1377C52.5497 49.8881 54.2679 49.0952 55.6311 47.919C56.384 47.2694 57.2202 46.2664 57.6563 45.4899C58.2402 44.4504 58.697 43.1176 58.8447 42.0234C58.8847 41.7267 58.9091 39.8684 58.9091 37.1208V32.6959H55.2599H51.6107L51.5938 37.0182L51.5768 41.3406L51.3974 41.7045C51.1751 42.1552 50.7624 42.5633 50.319 42.771L49.9815 42.929H29.4574H8.9332L8.58352 42.758C8.00737 42.4763 7.5837 41.9713 7.37379 41.3162C7.32863 41.1752 7.30722 39.7567 7.30722 36.9022V32.6959H3.65361H0L0.0217822 37.3848Z" fill="#222222"/>
</svg>
