<svg width="24" height="24" viewBox="0 0 24 24" fill="none" xmlns="http://www.w3.org/2000/svg">
<g clip-path="url(#clip0_718_1433)">
<path fill-rule="evenodd" clip-rule="evenodd" d="M0.000488281 12.067C0.000488281 18.033 4.33349 22.994 10.0005 24V15.333H7.00049V12H10.0005V9.333C10.0005 6.333 11.9335 4.667 14.6675 4.667C15.5335 4.667 16.4675 4.8 17.3335 4.933V8H15.8005C14.3335 8 14.0005 8.733 14.0005 9.667V12H17.2005L16.6675 15.333H14.0005V24C19.6675 22.994 24.0005 18.034 24.0005 12.067C24.0005 5.43 18.6005 0 12.0005 0C5.40049 0 0.000488281 5.43 0.000488281 12.067Z" fill="#FFC727"/>
</g>
<defs>
<clipPath id="clip0_718_1433">
<rect width="24" height="24" fill="white" transform="translate(0.000488281)"/>
</clipPath>
</defs>
</svg>
