<svg width="56" height="57" viewBox="0 0 56 57" fill="none" xmlns="http://www.w3.org/2000/svg">
<path fill-rule="evenodd" clip-rule="evenodd" d="M39.0267 0.518995C37.7723 0.656875 34.6311 1.98361 32.7295 3.17882C30.3328 4.68529 28.4067 6.4144 26.9434 8.37303C26.7043 8.69313 26.4556 9.02159 26.3908 9.10291L26.2729 9.25084L25.4756 8.98995C24.0988 8.53954 22.3399 8.14156 20.6665 7.90188C15.815 7.20703 9.45971 7.35803 5.21321 8.26907C3.31252 8.67684 2.76836 8.90059 1.84971 9.652C0.909223 10.4212 0.282797 11.5216 0.0778327 12.7645C-0.00209128 13.2493 -0.00809645 14.8605 0.00593276 32.0232L0.0212906 50.7529L0.163602 51.2202C0.429519 52.0934 0.837429 52.8259 1.37357 53.3931C2.29232 54.365 3.39558 54.918 4.70657 55.0638C5.24457 55.1236 5.57872 55.0975 7.0359 54.8818C10.8798 54.3128 16.3114 54.2817 20.4008 54.8053C22.4668 55.0698 24.1296 55.4376 25.7572 55.9901C27.7605 56.67 28.2395 56.67 30.2428 55.9901C33.5267 54.8754 37.7519 54.362 42.9326 54.4479C45.5115 54.4907 46.9317 54.595 49.1501 54.9043C50.7291 55.1245 50.7403 55.1253 51.2837 55.0649C52.6047 54.9179 53.7015 54.3696 54.6273 53.3931C55.1502 52.8416 55.5753 52.0776 55.8364 51.2202L55.9787 50.7529L55.9941 32.0232C56.0081 14.8605 56.0021 13.2493 55.9222 12.7645C55.7172 11.5216 55.0908 10.4212 54.1503 9.652C53.3542 9.00085 52.8909 8.77408 51.7995 8.5015C49.6081 7.95416 46.6965 7.58628 44.0486 7.52216C43.4202 7.50692 42.8283 7.48274 42.7333 7.4684L42.5606 7.44232V5.36332C42.5606 3.04126 42.5337 2.81444 42.1783 2.13964C41.9722 1.74844 41.3671 1.12517 40.993 0.918668C40.3917 0.586877 39.6958 0.445452 39.0267 0.518995ZM36.2368 24.9599C36.2368 36.7776 36.2205 41.4675 36.1793 41.4675C36.1476 41.4675 35.759 41.6114 35.3158 41.7872C34.0571 42.2866 32.635 43.0849 31.5604 43.8954L31.215 44.156L31.2013 40.8805L31.1877 37.6051H27.9996H24.8115V43.4043C24.8115 48.3735 24.8008 49.1994 24.7366 49.1748C24.6143 49.1281 23.3989 48.8875 22.7125 48.7742C18.8497 48.1362 13.9112 47.9597 9.32096 48.2953C8.56875 48.3502 6.8092 48.5342 6.4912 48.591L6.31849 48.6219V31.5565C6.31849 15.3495 6.32317 14.4898 6.41149 14.4637C6.58377 14.4129 7.62289 14.2249 8.18183 14.1434C11.3574 13.6804 15.8485 13.6482 19.1786 14.0647C20.8348 14.2719 22.4184 14.6051 23.4821 14.9702C23.8188 15.0857 24.2556 15.2297 24.4528 15.2902L24.8115 15.4001V20.762V26.1239H28H31.1885V19.7449C31.1885 15.1053 31.2048 13.3344 31.2485 13.2504C31.3675 13.0215 31.96 12.1743 32.2728 11.7856C32.7595 11.1811 33.7463 10.2209 34.4566 9.66078C35.0707 9.17651 36.1133 8.4524 36.1966 8.4524C36.2187 8.4524 36.2368 15.8808 36.2368 24.9599ZM44.82 13.8501C46.5885 13.9624 48.8549 14.2544 49.5885 14.4645C49.6768 14.4898 49.6815 15.3492 49.6815 31.5565V48.6219L49.5088 48.591C48.7945 48.4633 46.6141 48.2744 44.8512 48.1874C42.4421 48.0686 38.0182 48.1673 36.4228 48.3756C36.2186 48.4023 36.2144 48.3999 36.3166 48.315C36.5003 48.1623 37.6763 47.623 38.2031 47.4498C38.4807 47.3586 38.959 47.2359 39.2659 47.1773C40.6529 46.9122 41.0406 46.7443 41.6307 46.1525C42.0625 45.7195 42.3075 45.293 42.4557 44.7163C42.559 44.3139 42.5606 44.0712 42.5606 29.0519V13.7962H43.2656C43.6534 13.7962 44.3529 13.8205 44.82 13.8501ZM13.9099 27.4859C11.639 29.7542 11.4802 29.9249 11.3933 30.1918C11.2631 30.5913 11.3043 31.1008 11.495 31.4497C11.5943 31.6314 12.3606 32.431 13.9874 34.0503L16.3363 36.3885L17.4514 35.2773L18.5664 34.1662L17.6402 33.2428L16.7139 32.3195L17.5876 32.3037C20.8571 32.2443 24.3333 32.5821 27.3929 33.2563L28.3004 33.4562L28.4626 32.872C28.5519 32.5507 28.7372 31.886 28.8744 31.395C29.0116 30.9039 29.1042 30.4835 29.0801 30.4608C28.9727 30.3597 26.5322 29.8674 25.0507 29.648C22.8408 29.3206 20.8818 29.1789 18.5011 29.1742C17.5 29.1722 16.681 29.1579 16.681 29.1425C16.681 29.127 17.0995 28.6972 17.6109 28.1874L18.5409 27.2605L17.4373 26.1626L16.3338 25.0649L13.9099 27.4859Z" fill="#222222"/>
</svg>
