<svg width="65" height="65" viewBox="0 0 65 65" fill="none" xmlns="http://www.w3.org/2000/svg">
<path d="M32.5 12.5C27.1957 12.5 22.1086 14.6071 18.3579 18.3579C14.6071 22.1086 12.5 27.1957 12.5 32.5V36.5H16.5C17.5609 36.5 18.5783 36.9214 19.3284 37.6716C20.0786 38.4217 20.5 39.4391 20.5 40.5V52.5C20.5 53.5609 20.0786 54.5783 19.3284 55.3284C18.5783 56.0786 17.5609 56.5 16.5 56.5H12.5C11.4391 56.5 10.4217 56.0786 9.67157 55.3284C8.92143 54.5783 8.5 53.5609 8.5 52.5V32.5C8.5 29.3483 9.12078 26.2274 10.3269 23.3156C11.533 20.4038 13.3008 17.758 15.5294 15.5294C17.758 13.3008 20.4038 11.533 23.3156 10.3269C26.2274 9.12078 29.3483 8.5 32.5 8.5C35.6517 8.5 38.7726 9.12078 41.6844 10.3269C44.5962 11.533 47.242 13.3008 49.4706 15.5294C51.6992 17.758 53.467 20.4038 54.6731 23.3156C55.8792 26.2274 56.5 29.3483 56.5 32.5V52.5C56.5 53.5609 56.0786 54.5783 55.3284 55.3284C54.5783 56.0786 53.5609 56.5 52.5 56.5H48.5C47.4391 56.5 46.4217 56.0786 45.6716 55.3284C44.9214 54.5783 44.5 53.5609 44.5 52.5V40.5C44.5 39.4391 44.9214 38.4217 45.6716 37.6716C46.4217 36.9214 47.4391 36.5 48.5 36.5H52.5V32.5C52.5 27.1957 50.3929 22.1086 46.6421 18.3579C42.8914 14.6071 37.8043 12.5 32.5 12.5Z" fill="#FFC727"/>
</svg>
