<svg width="59" height="52" viewBox="0 0 59 52" fill="none" xmlns="http://www.w3.org/2000/svg">
<path fill-rule="evenodd" clip-rule="evenodd" d="M10.4396 0.517635C8.88848 0.781652 7.44059 1.68909 6.58973 2.93038C6.30034 3.35263 6.1752 3.6088 5.32403 5.52206C4.61561 7.11426 4.50665 7.35902 4.28498 7.85601C4.22937 7.98068 3.84233 8.85094 3.42491 9.78985C3.00749 10.7288 2.63367 11.569 2.59425 11.657C1.77146 13.4921 1.02378 15.1945 0.81357 15.7114C0.531308 16.4056 0.30551 17.2475 0.184066 18.0587C0.135799 18.3815 0.0785327 18.7056 0.0568903 18.7789C0.0353015 18.8523 0.0104985 19.2964 0.00187365 19.7658C-0.0353041 21.7863 0.480417 23.565 1.5823 25.217C2.05597 25.9271 2.69249 26.6583 3.25439 27.1378C3.64894 27.4745 4.88839 28.3281 4.98273 28.3281C5.0085 28.3281 5.02928 32.5786 5.02966 37.9173C5.03035 47.0886 5.03475 47.5276 5.13096 47.9918C5.50531 49.7982 6.87017 51.266 8.70988 51.8406L9.18066 51.9877H29.6981H50.2155L50.6431 51.8644C52.2809 51.3923 53.559 50.2092 54.1279 48.6386C54.431 47.8017 54.4206 48.1889 54.4229 37.6969L54.425 28.0347L54.8648 27.7339C57.0283 26.2543 58.4672 23.8896 58.8434 21.1956C58.9489 20.4395 58.9242 19.1066 58.7915 18.3993C58.6518 17.6547 58.3019 16.3062 58.018 15.418C57.7776 14.6658 57.5421 14.0768 56.2774 11.0639C56.0543 10.5323 55.7638 9.83611 55.6318 9.51682C55.4999 9.19754 55.2917 8.69623 55.1691 8.40282C55.0465 8.10941 54.8615 7.66529 54.7579 7.41589C54.6543 7.16649 54.5119 6.82437 54.4416 6.65569C54.3712 6.48695 54.256 6.21088 54.1857 6.04219C54.1153 5.87346 53.9209 5.39936 53.7536 4.98858C52.9697 3.06418 52.3586 2.20085 51.248 1.44897C50.8701 1.19312 50.0639 0.823209 49.5191 0.655645L49.0369 0.507392L29.8052 0.501097C19.2278 0.49763 10.5132 0.505045 10.4396 0.517635ZM47.8654 7.44256C47.9994 7.76532 48.1942 8.23344 48.2984 8.48284C48.4026 8.73224 48.5451 9.0743 48.6151 9.24304C48.685 9.41173 48.8002 9.6878 48.8709 9.85654C49.0663 10.3228 49.8417 12.1846 50.4982 13.7642C50.8214 14.5418 51.2236 15.502 51.3919 15.8981C52.305 18.0459 52.691 19.7381 52.4747 20.6461C52.1691 21.9295 51.1992 22.8508 49.9128 23.0797C48.8943 23.261 47.9638 22.9607 47.0859 22.1673C46.3521 21.5042 45.5244 21.0297 44.6174 20.752C43.9302 20.5416 43.5386 20.4869 42.7156 20.4865C41.0791 20.4855 39.6085 21.0499 38.43 22.131C37.5347 22.9524 36.6206 23.2598 35.5998 23.083C35.0023 22.9795 34.4689 22.7275 34.0105 22.3321C32.8542 21.3349 32.0314 20.8947 30.7427 20.5838C30.5517 20.5377 30.0994 20.5127 29.457 20.5127C28.8146 20.5127 28.3623 20.5377 28.1713 20.5838C26.8826 20.8947 26.0598 21.3349 24.9035 22.3321C24.4451 22.7275 23.9117 22.9795 23.3142 23.083C22.2934 23.2598 21.3793 22.9524 20.484 22.131C19.3055 21.0499 17.8349 20.4855 16.1984 20.4865C15.3754 20.4869 14.9838 20.5416 14.2966 20.752C13.3896 21.0297 12.5619 21.5042 11.8281 22.1673C10.9502 22.9607 10.0197 23.261 9.0012 23.0797C7.49164 22.8111 6.37261 21.5122 6.36902 20.0245C6.36795 19.5885 6.54891 18.5531 6.69484 18.1602C6.78499 17.9174 7.8677 15.4612 8.86186 13.2441C8.90461 13.1487 8.9742 12.9927 9.01646 12.8973C9.05878 12.802 9.39628 12.0454 9.76645 11.2162C10.1367 10.3869 10.4396 9.69911 10.4396 9.68775C10.4396 9.67062 10.5865 9.34451 10.9225 8.61621C10.9495 8.55753 11.1193 8.17385 11.2997 7.76361C11.4801 7.35337 11.6505 6.97519 11.6784 6.92328C11.7267 6.83328 12.5561 6.82955 29.6755 6.84235L47.6219 6.85574L47.8654 7.44256ZM16.5021 27.0888C17.8515 28.291 19.4497 29.0494 21.3143 29.3724C21.7144 29.4417 22.1474 29.4699 22.8143 29.4699C24.8948 29.4699 26.7325 28.8782 28.4124 27.6675C28.6186 27.5188 28.7994 27.3846 28.8142 27.3692C28.8289 27.3538 28.9795 27.2253 29.149 27.0837L29.457 26.8261L29.765 27.0837C29.9345 27.2253 30.0851 27.3538 30.0998 27.3692C30.1146 27.3846 30.2954 27.5188 30.5016 27.6675C32.1815 28.8782 34.0191 29.4699 36.0997 29.4699C37.4799 29.4699 38.5993 29.2479 39.8014 28.7357C40.8356 28.295 41.4818 27.8826 42.5369 26.9894L42.7331 26.8233L43.1514 27.1787C44.3441 28.1922 46.0166 29.0052 47.4834 29.2847C47.6602 29.3183 47.8591 29.3574 47.9254 29.3715L48.0459 29.3971V37.5316V45.666H41.9389H35.8319V41.7351C35.8319 38.2969 35.821 37.7602 35.7453 37.4539C35.4945 36.4382 34.6829 35.6048 33.6891 35.3423C33.2559 35.228 25.288 35.2265 24.857 35.3408C24.0617 35.5516 23.3843 36.1216 23.0271 36.8806C22.8813 37.1905 22.7958 37.4628 22.7613 37.7274C22.7333 37.9419 22.7097 39.8158 22.7088 41.8917L22.7071 45.666H17.0555H11.4038V37.4857V29.3053L11.7119 29.2381C13.0526 28.9455 14.6238 28.146 15.743 27.1868C15.964 26.9974 16.1609 26.8407 16.1806 26.8384C16.2004 26.8362 16.345 26.9489 16.5021 27.0888ZM32.6712 42.0384V45.666H29.2963H25.9214V42.0384V38.4108H29.2963H32.6712V42.0384Z" fill="#222222"/>
</svg>
