<svg width="24" height="24" viewBox="0 0 24 24" fill="none" xmlns="http://www.w3.org/2000/svg">
<path d="M12.0005 0C5.37299 0 0.000488281 5.3725 0.000488281 12C0.000488281 18.6275 5.37299 24 12.0005 24C18.628 24 24.0005 18.6275 24.0005 12C24.0005 5.3725 18.628 0 12.0005 0ZM9.06299 16.9738H6.63299V9.15375H9.06299V16.9738ZM7.83299 8.19375C7.06549 8.19375 6.56924 7.65 6.56924 6.9775C6.56924 6.29125 7.08049 5.76375 7.86424 5.76375C8.64799 5.76375 9.12799 6.29125 9.14299 6.9775C9.14299 7.65 8.64799 8.19375 7.83299 8.19375ZM17.938 16.9738H15.508V12.64C15.508 11.6313 15.1555 10.9462 14.2767 10.9462C13.6055 10.9462 13.2067 11.41 13.0305 11.8563C12.9655 12.015 12.9492 12.24 12.9492 12.4638V16.9725H10.518V11.6475C10.518 10.6713 10.4867 9.855 10.4542 9.1525H12.5655L12.6767 10.2388H12.7255C13.0455 9.72875 13.8292 8.97625 15.1405 8.97625C16.7392 8.97625 17.938 10.0475 17.938 12.35V16.9738Z" fill="#FFC727"/>
</svg>
