<svg width="59" height="58" viewBox="0 0 59 58" fill="none" xmlns="http://www.w3.org/2000/svg">
<path opacity="0.3" fill-rule="evenodd" clip-rule="evenodd" d="M4.38913 0.584156C2.70708 0.878829 1.27877 1.96308 0.546806 3.5009C0.269904 4.0827 0.120613 4.63374 0.0540906 5.31968C-0.0180302 6.06396 -0.0180302 52.3973 0.0540906 53.1416C0.29131 55.5882 2.04389 57.4807 4.44402 57.882C4.84008 57.9483 7.65323 57.9601 23.0603 57.9603C35.7811 57.9604 41.3377 57.9426 41.637 57.9009C42.1465 57.8299 42.8321 57.6206 43.2487 57.4089C44.4379 56.8048 45.4378 55.6759 45.8554 54.4656C46.1413 53.6372 46.1232 54.2135 46.1421 45.3568L46.1597 37.1286L52.3808 30.8818C57.2023 26.0403 58.6287 24.5775 58.721 24.3798C58.8796 24.0402 58.9454 23.5986 58.8895 23.2478C58.7911 22.63 58.7272 22.5494 56.7957 20.6086C54.6542 18.4569 54.6734 18.4707 53.8144 18.4707C53.3484 18.4707 53.2241 18.4906 52.9911 18.6025C52.7749 18.7062 52.0284 19.4225 49.4773 21.9735C47.6956 23.7552 46.2203 25.2129 46.1988 25.2129C46.1773 25.2129 46.1519 20.6372 46.1423 15.0446C46.1236 4.07483 46.1432 4.82962 45.8554 3.99569C45.4378 2.7854 44.4379 1.65646 43.2487 1.05231C42.8321 0.840688 42.1465 0.631378 41.637 0.560324C40.9571 0.465494 4.93498 0.488555 4.38913 0.584156ZM39.6262 19.4478V31.8453L36.5501 34.9272C34.8583 36.6223 33.425 38.0877 33.365 38.1836C33.2684 38.3382 32.4913 40.5579 31.7114 42.9072C31.4665 43.6452 31.4396 43.7735 31.457 44.1202C31.5069 45.1096 32.2659 45.8795 33.2591 45.9477C33.667 45.9758 33.7092 45.966 34.8273 45.5872C38.808 44.2382 39.252 44.0725 39.4374 43.8672C39.4902 43.8086 39.5543 43.7607 39.5798 43.7607C39.6054 43.7607 39.6262 45.482 39.6262 47.5858V51.411H23.1054H6.58459V29.2306V7.0503H23.1054H39.6262V19.4478ZM16.3544 15.5536L13.8579 18.0576L12.9239 17.1221L11.9899 16.1867L10.8382 17.3425L9.68655 18.4983L11.2504 20.0691C13.0374 21.8639 13.1926 21.9776 13.8503 21.9725C14.5336 21.9672 14.4146 22.0674 17.9343 18.5375L21.1298 15.3329L19.9904 14.1913L18.851 13.0497L16.3544 15.5536ZM24.258 17.2599V18.8835H30.1309H36.0037V17.2599V15.6362H30.1309H24.258V17.2599ZM16.3544 27.9372L13.8579 30.4411L12.9239 29.5057L11.9899 28.5702L10.8377 29.7271L9.68567 30.8839L11.2774 32.4725C12.2822 33.4754 12.9601 34.109 13.1161 34.191C13.4638 34.3738 14.2439 34.3793 14.5706 34.2011C14.6946 34.1335 16.1692 32.6968 17.96 30.8989L21.1298 27.7164L19.9904 26.5748L18.851 25.4333L16.3544 27.9372ZM24.258 29.6434V31.267H30.1309H36.0037V29.6434V28.0198H30.1309H24.258V29.6434ZM16.3545 40.3206L13.8579 42.8247L12.9239 41.8893L11.9899 40.9538L10.852 42.0958L9.71405 43.2378L11.3021 44.8339C12.3811 45.9184 12.9744 46.4741 13.1529 46.5676C13.5149 46.7572 14.1772 46.7643 14.5431 46.5825C14.7191 46.4951 15.7052 45.5419 17.9732 43.2666L21.1563 40.0734L20.0319 38.945C19.4135 38.3243 18.8949 37.8166 18.8794 37.8166C18.8639 37.8166 17.7277 38.9434 16.3545 40.3206ZM24.258 42.027V43.6506H26.5632H28.8685V42.027V40.4034H26.5632H24.258V42.027Z" fill="#222222"/>
</svg>
