<svg width="59" height="47" viewBox="0 0 59 47" fill="none" xmlns="http://www.w3.org/2000/svg">
<path opacity="0.3" fill-rule="evenodd" clip-rule="evenodd" d="M10.4353 0.549162C7.37028 0.699746 3.96908 1.27144 2.73928 1.84282C2.0746 2.15164 1.24922 2.87162 0.810252 3.52544C0.531524 3.94063 0.269075 4.54056 0.11625 5.11205L0 5.54672V23.0669C0 39.8403 0.00406974 40.606 0.095379 41.0322C0.492861 42.8876 2.00009 44.3908 3.84584 44.7726C4.38738 44.8846 5.23985 44.8774 6.00032 44.7546C7.91599 44.445 9.48051 44.329 12.2014 44.2949C16.2025 44.2448 19.0384 44.4952 21.8835 45.1498C22.5446 45.3019 23.328 45.5397 24.3404 45.8957C25.5325 46.3149 26.4047 46.2577 28.1709 45.6447C30.1192 44.9684 32.8636 44.5101 36.028 44.3324C37.2056 44.2663 40.4947 44.2659 41.637 44.3317C43.2234 44.4232 44.8781 44.595 45.9416 44.7788C46.5219 44.8791 47.4108 44.8766 47.9087 44.7734C49.2716 44.4907 50.5025 43.574 51.1786 42.338C51.4398 41.8605 51.6647 41.128 51.7297 40.5429C51.7671 40.2057 51.7854 36.9544 51.7854 30.6242V21.2072L55.153 17.829C57.4089 15.5661 58.5702 14.3644 58.6705 14.1889C58.9723 13.6612 58.9887 13.0152 58.7147 12.4414C58.6314 12.267 58.1208 11.7164 56.9009 10.4857C55.3352 8.9063 55.1745 8.75954 54.8377 8.60146C54.5234 8.45392 54.418 8.4305 54.0812 8.43328C53.4215 8.43878 53.1786 8.56721 52.4246 9.30897L51.7854 9.93776V8.05512C51.7854 6.09815 51.7485 5.54898 51.5732 4.89835C51.1499 3.32787 49.8612 2.03369 48.2529 1.56392C45.7636 0.836765 41.913 0.440375 38.0107 0.509513C33.9555 0.581374 30.9534 1.01972 28.0711 1.96088C26.1426 2.59056 25.5527 2.59035 23.6621 1.959C20.6733 0.960898 17.0596 0.47882 12.7311 0.500713C11.9276 0.504799 10.8945 0.526588 10.4353 0.549162ZM16.227 6.85552C18.5875 7.05655 20.3174 7.39186 22.0186 7.97812L22.7491 8.2299L22.7622 23.5835C22.7731 36.2854 22.7634 38.9371 22.7063 38.9371C22.6684 38.9371 22.4277 38.8924 22.1714 38.8377C19.7165 38.3135 16.6033 38.044 12.9857 38.0424C10.4129 38.0413 8.13273 38.1576 6.70471 38.3626C6.51818 38.3894 6.3245 38.4117 6.27425 38.4123C6.18748 38.4133 6.18294 37.6385 6.18294 22.8664V7.31948L6.8482 7.20608C8.1127 6.99055 9.30327 6.86076 10.7745 6.77821C11.9076 6.71458 15.1045 6.75994 16.227 6.85552ZM41.8457 6.8318C42.7416 6.89853 44.3321 7.09447 45.0416 7.22552L45.5242 7.31466V11.7733V16.2319L40.1204 21.6528C36.1315 25.6542 34.6829 27.1393 34.588 27.3241C34.5173 27.4618 34.3454 27.9096 34.2062 28.3193C34.0669 28.7289 33.6979 29.8065 33.3861 30.7139C32.8318 32.327 32.8193 32.3738 32.8239 32.809C32.8275 33.1534 32.8551 33.3117 32.9459 33.508C33.2755 34.2208 34.0854 34.7078 34.8 34.6227C34.9445 34.6055 35.5793 34.4162 36.2107 34.2019C39.2993 33.1538 39.8526 32.9604 40.0584 32.8574C40.2063 32.7833 41.1552 31.87 42.9023 30.1202L45.5242 27.4942V32.9537C45.5242 37.2871 45.5107 38.4132 45.459 38.4123C45.4231 38.4117 45.2411 38.3894 45.0546 38.3626C42.478 37.9923 37.1916 37.9306 33.8888 38.2322C32.3616 38.3717 30.5391 38.6294 29.4433 38.8608C29.2444 38.9028 29.0598 38.9371 29.033 38.9371C29.0028 38.9371 28.9846 33.0669 28.9853 23.5775L28.9864 8.21796L29.7659 7.96477C31.5781 7.37615 33.103 7.07268 35.2193 6.87941C36.9146 6.72463 40.0996 6.70169 41.8457 6.8318Z" fill="#222222"/>
</svg>
