<svg width="52" height="60" viewBox="0 0 52 60" fill="none" xmlns="http://www.w3.org/2000/svg">
<path opacity="0.3" fill-rule="evenodd" clip-rule="evenodd" d="M40.1027 0.583168C36.4783 1.0725 33.382 3.37792 31.8733 6.71062C31.1975 8.20342 30.8799 10.0223 31.0117 11.6445C31.0599 12.2379 31.2082 13.1418 31.32 13.5237C31.3375 13.5832 31.0895 13.7612 30.4913 14.1185C30.0218 14.3989 29.4906 14.7191 29.3109 14.8301C29.1312 14.9411 28.7532 15.173 28.471 15.3454C27.0116 16.2371 26.0551 16.8222 25.335 17.2637C24.896 17.5329 24.3315 17.8747 24.0806 18.0234C23.8297 18.1721 23.5347 18.3506 23.4249 18.4202C23.3151 18.4897 22.9944 18.6869 22.7122 18.8584C21.9274 19.3354 20.4641 20.2304 19.5762 20.7766C19.1371 21.0467 18.5274 21.418 18.2211 21.6018C17.9149 21.7856 17.6042 21.9724 17.5306 22.0168C17.4055 22.0925 17.3788 22.0827 17.1181 21.8657C16.2619 21.1533 14.9075 20.4195 13.7539 20.0432C12.5518 19.651 11.9485 19.56 10.5388 19.5584C9.75963 19.5575 9.15706 19.5846 8.88525 19.6328C6.62117 20.0341 4.83514 20.9252 3.25311 22.4425C1.33901 24.2784 0.257089 26.5322 0.0358012 29.1445C-0.177276 31.6607 0.564474 34.147 2.16195 36.2714C2.63047 36.8945 3.80003 38.0291 4.39051 38.4334C6.23932 39.6992 7.98414 40.2828 10.1456 40.3582C12.5483 40.4419 14.6373 39.8 16.7587 38.3259C16.8314 38.2754 16.9822 38.3444 17.5284 38.6784C17.9021 38.9069 18.4643 39.2503 18.7779 39.4415C19.0915 39.6328 19.7586 40.0399 20.2604 40.3461C20.7621 40.6524 21.5704 41.1448 22.0565 41.4404C23.203 42.1376 24.0863 42.6764 26.0192 43.8577C26.521 44.1643 27.3164 44.6491 27.7868 44.9349C28.2572 45.2206 28.9243 45.6273 29.2693 45.8387C29.6142 46.05 30.1274 46.3613 30.4096 46.5305C31.2012 47.005 31.1815 46.9837 31.1202 47.3022C30.9337 48.2716 30.949 49.8364 31.1555 50.9183C31.6086 53.2913 32.9583 55.5316 34.8516 57.0533C37.1294 58.884 39.9553 59.691 42.7939 59.3214C45.2454 59.0022 47.355 57.9389 49.063 56.1616C51.7611 53.354 52.6617 49.4051 51.446 45.7134C50.346 42.3735 47.527 39.7572 44.0772 38.8746C43.2228 38.656 42.4628 38.563 41.5267 38.5627C40.5057 38.5623 39.9395 38.626 39.0116 38.8457C37.5624 39.1888 35.9487 39.9828 34.9079 40.8647C34.7477 41.0005 34.5884 41.1115 34.5538 41.1115C34.5193 41.1115 34.2141 40.9423 33.8758 40.7354C33.2488 40.3521 32.801 40.0802 31.6355 39.3751C31.2749 39.157 30.7104 38.8123 30.3811 38.6091C29.8406 38.2756 28.6689 37.5598 27.1026 36.6062C26.789 36.4153 26.1219 36.0087 25.6201 35.7026C25.1183 35.3965 24.4769 35.0061 24.1946 34.835C23.9124 34.6639 23.2838 34.2803 22.7977 33.9825C22.3116 33.6847 21.6445 33.2786 21.3152 33.08C20.9859 32.8813 20.6975 32.7006 20.6743 32.6784C20.6511 32.6562 20.6578 32.5498 20.6892 32.442C20.7206 32.3342 20.8002 31.9401 20.866 31.5662C21.0142 30.7256 21.0274 29.2354 20.8936 28.4529C20.8459 28.1738 20.8178 27.9346 20.8311 27.9213C20.8445 27.908 21.1834 27.6985 21.5842 27.4557C22.3377 26.9994 22.5822 26.8505 23.4534 26.3176C24.98 25.3838 27.1756 24.0448 28.3855 23.3098C28.558 23.205 28.93 22.978 29.2122 22.8054C29.4945 22.6328 30.1359 22.2406 30.6377 21.9339C31.1395 21.6272 31.9092 21.1555 32.3482 20.8857C32.7873 20.6159 33.3978 20.2447 33.7049 20.0609C34.012 19.8771 34.444 19.6184 34.6648 19.4859C34.8856 19.3536 35.0855 19.2452 35.109 19.2452C35.1324 19.2452 35.406 19.4143 35.717 19.6211C37.4525 20.7748 39.3561 21.3378 41.5282 21.3398C43.2018 21.3412 44.6446 21.0022 46.1459 20.2547C47.8265 19.4178 49.1809 18.2338 50.203 16.7081C52.9603 12.5922 52.4661 7.23694 49.0002 3.67482C46.9939 1.61276 44.274 0.477178 41.397 0.500348C40.9987 0.503577 40.4163 0.540852 40.1027 0.583168ZM42.5793 7.40354C44.5236 8.0256 45.6128 10.0708 45.0238 11.9932C44.8406 12.591 44.5479 13.056 44.0426 13.552C43.5762 14.0098 43.2587 14.2041 42.5883 14.4423C42.1256 14.6066 41.238 14.6418 40.6773 14.5179C39.4551 14.2476 38.3998 13.325 37.9853 12.1641C37.7802 11.5894 37.7328 10.6506 37.8786 10.0521C38.2196 8.65253 39.3358 7.60561 40.8197 7.29336C41.2158 7.21003 42.1591 7.26906 42.5793 7.40354ZM11.2844 26.3506C12.5256 26.6119 13.5235 27.48 13.9936 28.7073C14.1447 29.1016 14.1557 29.1862 14.1557 29.9518C14.1557 30.7173 14.1447 30.8019 13.9936 31.1962C13.6202 32.171 12.9494 32.8928 12.0337 33.3054C10.1594 34.1497 7.93841 33.2986 7.09979 31.4147C6.88785 30.9386 6.80717 30.5352 6.80717 29.9518C6.80717 29.3683 6.88785 28.9649 7.09979 28.4888C7.8144 26.8834 9.56571 25.9886 11.2844 26.3506ZM42.6115 45.4663C43.2466 45.6901 43.5705 45.8906 44.0414 46.3515C44.9336 47.225 45.3234 48.3232 45.1483 49.4706C44.9286 50.9105 43.971 52.0416 42.5793 52.5047C42.0311 52.6871 41.0026 52.6885 40.4163 52.5075C39.1493 52.1162 38.1844 51.1064 37.8786 49.8514C37.7328 49.2529 37.7802 48.3141 37.9853 47.7394C38.378 46.6396 39.2922 45.7921 40.4733 45.433C40.8425 45.3207 40.9946 45.3059 41.5852 45.3244C42.0956 45.3403 42.3563 45.3764 42.6115 45.4663Z" fill="#222222"/>
</svg>
