<svg width="9" height="7" viewBox="0 0 9 7" fill="none" xmlns="http://www.w3.org/2000/svg">
<path d="M8.29358 1.0955C8.25863 1.20098 8.20292 1.2984 8.12976 1.38203L3.96309 6.38203C3.88897 6.47095 3.79713 6.54345 3.69344 6.59491C3.58974 6.64636 3.47646 6.67565 3.36082 6.68091C3.24518 6.68616 3.12971 6.66726 3.02177 6.62542C2.91384 6.58357 2.81581 6.5197 2.73393 6.43787L0.233927 3.93786C0.0821286 3.7807 -0.00186726 3.57019 3.15047e-05 3.3517C0.00193027 3.1332 0.089571 2.92419 0.244078 2.76968C0.398584 2.61518 0.607596 2.52753 0.826093 2.52564C1.04459 2.52374 1.25509 2.60773 1.41226 2.75953L3.26643 4.61453L6.84976 0.315364C6.91883 0.228318 7.00461 0.155965 7.10205 0.102559C7.19949 0.0491533 7.30663 0.0157747 7.41716 0.00438787C7.5277 -0.00699996 7.63939 0.00383283 7.74568 0.0362501C7.85196 0.0686665 7.95069 0.122013 8.03605 0.19315C8.12141 0.264285 8.19169 0.351775 8.24274 0.450471C8.29379 0.549168 8.32459 0.657077 8.33332 0.767852C8.34205 0.878626 8.32854 0.990029 8.29358 1.0955Z" fill="#FFC727"/>
</svg>
