<svg width="80" height="80" viewBox="0 0 80 80" fill="none" xmlns="http://www.w3.org/2000/svg">
<g clip-path="url(#clip0_366_11325)">
<path d="M40 0C17.9232 0 0 17.9232 0 40C0 62.0768 17.9232 80 40 80C62.0368 80 79.9288 62.1408 79.9936 40.1184C79.9977 40.0791 79.9998 40.0395 80 40C80 39.9645 79.9984 39.929 79.9952 39.8936C79.9376 17.8656 62.0416 0 40 0ZM39.744 2.4064C40.4896 2.4752 41.2336 2.5664 41.9704 2.7096C42.024 4.4728 42.4176 7.7672 38.972 7.6496C36.1368 7.8096 33.4464 14.2496 31.852 9.6016C32.0376 7.2176 36.1408 2.4128 31.184 4.1592C30.1288 5.6824 30.4032 8.5136 28.448 8.18C27.7536 10.6888 25.7976 9.1936 25.4096 8.1064C24.4696 8.6568 26.1064 10.068 25.0544 10.82C28.096 8.7752 25.3048 13.3784 27.044 14.5624C25.3832 16.1576 28.3536 20.2368 24.8504 19.2048C21.6224 18.6904 27.36 15.1288 23.4064 16.8288C20.9216 17.3864 21.0544 18.8048 22.9144 19.1784C21.2456 20.7448 19.1176 20.8304 18.128 20.1248C15.5936 21.7416 13.1744 23.7408 11.0888 26.0888C8.0248 26.2328 8.7152 32.4448 7.2408 31.8128C7.0792 29.9088 7.7288 26.8368 5.7736 27.2816C5.2808 27.1184 4.832 27.3352 4.4424 27.7672C9.488 13.0792 23.36 2.516 39.744 2.4064ZM45.164 2.7608C45.68 2.832 46.192 2.9144 46.7016 3.0064C47.38 3.2672 47.8216 3.6184 46.7952 3.7456L45.9768 3.4672C45.2864 3.0712 45.0904 2.856 45.164 2.7608ZM53.932 5.0728C67.8024 10.6064 77.6 24.1456 77.6 40C77.6 50.4688 73.328 59.928 66.4344 66.7424C67.2216 64.596 67.6344 62.2064 69.1048 60.408C70.0424 57.172 66.7288 54.86 68.6296 51.8672C66.9808 52.0656 64.06 50.0992 62.236 52.7816C60.1512 52.8088 58.132 55.1992 56.1936 53.9512C53.6192 52.4232 50.6656 50.636 49.936 47.5144C50.2496 45.08 49.5016 41.96 49.7328 39.7032C50.8848 35.7984 53.9864 33.452 54.6288 29.592C54.8928 29.3592 57.1424 27.604 57.236 27.5312C59.9736 26.8232 63.6968 22.4288 65.332 26.8344C65.8896 27.2384 69.6168 29.1168 69.2816 27.6344C69.372 25.3184 75.5488 26.5744 72.3768 23.5456C72.048 23.3512 70.7976 22.9872 69.9688 23.2184C69.628 23.3 68.1608 24.9224 66.9096 22.7424C64.9832 20.948 66.8056 27.5512 64.22 24.1376C66.8792 23.2536 60.8432 20.164 62.2656 21.9616C64.352 25.5056 60.4624 23.1784 61.1672 20.7344C57.8016 20.3216 59.4344 26.6408 56.2768 27.6128C56.2976 27.616 56.3208 27.6112 56.3424 27.6144L55.792 27.6864L54.9424 27.764C54.1632 26.9704 51.8928 26.8704 52.5656 24.5736C51.1336 22.0936 52.5536 21.148 55.0872 21.3816C57.6432 19.7448 49.7712 17.7856 54.828 16.9312C52.6144 17.0736 51.6888 17.1576 51.4016 14.4272C51.7552 17.8144 47.3784 15.6992 49.7248 13.684C50.6192 13.084 47.6688 11.8576 50.1488 11.4392C51.8072 11.3512 55.076 18.0712 55.6752 14.0408C56.8016 13.6792 54.6224 11.5224 55.144 11.408C52.208 12.3432 51.352 7.1896 51.328 5.2608C52.3008 5.2992 53.2848 5.2192 53.9312 5.0736L53.932 5.0728ZM26.7024 6.3744C26.4912 6.4 26.0976 6.5872 25.476 7.032C24.6984 7.3664 23.144 9.4216 24.968 7.9008C26.336 7.6736 27.336 6.2968 26.7024 6.3744ZM54.6784 7.3808C54.2984 7.4104 55.5376 8.408 54.9504 7.4352C54.82 7.3912 54.7336 7.376 54.6784 7.3808ZM22.476 7.8384C22.152 7.8144 21.6744 7.9592 21.0072 8.3504C18.8256 8.536 18.7112 13.3328 18.7744 13.0448C19.42 12.6144 19.9904 11.2968 20.8256 11.3744C22.384 11.2128 23.8784 7.94 22.476 7.8384ZM42.6664 7.9264C44.24 7.86 46.7088 9.1144 43.2928 9.5384C42.7384 9.5352 42.1296 9.4376 41.712 9.0352C41.42 8.2576 41.9512 7.9552 42.6664 7.9256V7.9264ZM54.7664 8.5504C54.1104 8.4912 57.2632 10.7112 55.932 9.032C55.2728 8.6992 54.9176 8.5648 54.7664 8.5512V8.5504ZM48.188 9.784C48.3768 9.7008 48.7224 10.7632 48.096 10.06C48.1088 9.884 48.1448 9.8024 48.188 9.784ZM50.6072 10.3648C50.7592 10.4064 51.3272 11.5792 50.6536 10.8128C50.5512 10.4624 50.556 10.3512 50.6072 10.3648ZM57.4552 10.3728C57.1256 10.3744 57.1512 10.72 58.1464 11.6008C58.4368 12.932 57.748 13.5744 59.2344 12.3728C59.5464 11.328 58.0056 10.3704 57.4552 10.3728ZM14.096 15.232C13.6256 15.1768 14.0416 17.3264 14.5728 15.696C14.36 15.3752 14.2048 15.2448 14.096 15.232ZM21.524 16.1776C21.228 16.1736 21.5032 16.8736 22.0224 16.4816C21.7848 16.2576 21.6224 16.1784 21.524 16.1776ZM67.036 16.4656C66.4256 16.536 68.3864 20.6416 68.8552 18.7712C71.3416 18.3888 68.476 16.2712 67.9208 17.184C67.4568 16.648 67.1776 16.448 67.0368 16.4648L67.036 16.4656ZM14.1536 17.2168C13.7896 17.2976 13.5696 19.5288 14.316 17.332C14.26 17.236 14.2056 17.2048 14.1536 17.2168ZM62.5416 19.4744C62.4168 19.512 62.7048 19.8328 63.7496 20.612C64.1232 20.5 65.968 22.2184 65.5368 21.2536C64.8328 20.5544 63.068 19.5496 62.6192 19.476C62.5937 19.4701 62.5673 19.4696 62.5416 19.4744ZM13.2336 19.4928C12.8384 19.4128 12.0664 20.7592 13.416 19.8208C13.396 19.6048 13.3248 19.5112 13.2336 19.4928ZM67.936 21.28C67.728 21.368 68.6856 22.7248 68.6128 21.7472C68.2032 21.3616 68.0048 21.2504 67.936 21.28ZM59.7168 23.1312C60.2144 23.0536 59.9176 25.3424 58.9496 24.2128C59.2968 23.4464 59.5512 23.1568 59.7176 23.1312H59.7168ZM69.9064 23.9376C70.448 23.8672 70.9144 25.4048 69.4096 24.6872C69.536 24.164 69.7256 23.9608 69.9056 23.9376H69.9064ZM40.6744 26.1616C41.26 26.2128 41.152 27.1592 39.8768 26.5C40.208 26.2256 40.48 26.144 40.6752 26.1608L40.6744 26.1616ZM42.4392 26.7624C42.6776 26.852 42.2088 27.7088 41.9312 27.0144C42.2008 26.788 42.36 26.7328 42.4392 26.7624ZM48.7912 30.8248C49.1232 30.7448 48.9752 31.9368 48.4832 31.1232C48.6128 30.9296 48.7136 30.8432 48.7904 30.8248H48.7912ZM8.6576 31.1672C8.8768 31.1648 9.3648 32.7992 8.584 31.8704C8.5408 31.3504 8.584 31.168 8.6576 31.1672ZM8.2232 32.4872C8.4432 32.5248 8.3352 34.6184 7.8952 33.3376C8.0408 32.692 8.1504 32.4752 8.2232 32.4872ZM4.3624 33.1312C4.8144 33.3816 3.5464 36.692 4.0264 37.5C5.5728 39.8528 3.012 44.0552 6.672 44.8656C7.968 42.3536 9.1728 44.6336 9.4608 44.3296C10.6528 44.1192 11.5016 47.0632 13.6408 46.6656C16.1192 46.4048 14.8928 51.2768 18.2728 51.816C22.4008 53.012 21.9744 58.544 26.5208 59.232C29.2088 60.8056 36.7384 61.4936 34.38 65.8168C30.8584 67.268 33.116 73.6832 27.932 72.4296C26.7896 72.7592 26.2944 73.9096 25.4456 74.6816C20.7541 72.7075 16.512 69.802 12.976 66.1408C10.9464 63.0248 8.048 60.5176 6.728 56.9392C3.9512 53.3904 6.2072 49.5776 5.652 45.8768C5.4888 43.9168 5.0064 47.0472 4.352 44.5608C3.3632 42.5328 3.02 39.8528 2.4864 37.5448C2.5776 36.1336 2.7496 34.7448 2.9912 33.38C3.0344 33.6736 3.1048 33.924 3.2088 34.108C3.8696 33.3048 4.2112 33.048 4.3616 33.132L4.3624 33.1312ZM5.9888 33.1632C6.2112 33.1856 6.5224 33.2672 6.9456 33.4216C7.7368 35.6408 9.8904 36.3624 9.2816 37.3408C10.8344 37.9608 13.0976 40.9056 9.436 39.5872C7.004 38.6072 10.2824 37.7288 7.4064 36.9528C7.2936 35.7448 4.436 33.0016 5.9888 33.1624V33.1632ZM51.3512 33.7752C51.7152 33.7752 52.0016 35.244 50.928 34.9856C51.0048 34.0784 51.1864 33.7752 51.352 33.7752H51.3512ZM9.0112 34.428C9.1704 34.4688 9.4248 34.908 9.2752 35.4392L9.0936 35.3192C8.8616 34.7504 8.8664 34.4896 8.9496 34.436C8.95868 34.4303 8.96889 34.4266 8.97953 34.4253C8.99016 34.4239 9.00096 34.4248 9.0112 34.428ZM48.616 34.4952C49.6496 34.436 51.4896 35.2792 49.116 35.3576H48.3168L48.1768 35.292C47.8424 34.736 48.1456 34.5224 48.616 34.4952ZM6.784 37.4112C7.248 37.508 8.5872 38.9952 7.048 38.4608C6.544 37.6104 6.5736 37.3664 6.784 37.4112ZM12.0608 39.6656C12.6376 39.5936 13.4144 41.144 11.6512 40.4232C11.6976 39.8944 11.8688 39.6896 12.0608 39.6656ZM14.8688 42.5816C15.1024 42.6728 15.3136 46.2 14.6888 44.5328L14.6576 43.9528C14.7104 42.9008 14.7912 42.5504 14.8688 42.5816ZM42.9296 44.9296C43.368 44.9776 44.7592 45.8816 43.2816 45.5888C42.728 45.0632 42.7304 44.9088 42.9296 44.9296ZM45.0784 45.4216C45.476 45.4152 45.3288 46.6256 44.716 45.6624C44.8664 45.4896 44.9864 45.4232 45.0784 45.4224V45.4216ZM44.7216 46.4752C45.332 46.376 44.8512 47.5872 44.116 46.7936C44.3832 46.5912 44.5808 46.4976 44.7216 46.4752ZM43.6896 46.6296C43.9136 46.6536 43.7856 47.7424 43.3456 47.0656C43.5008 46.732 43.6144 46.6216 43.6896 46.6296ZM67.0656 54.08C67.2904 54.104 67.1616 55.192 66.7216 54.516C66.8768 54.1816 66.9904 54.072 67.0656 54.08Z" fill="#222222"/>
</g>
<defs>
<clipPath id="clip0_366_11325">
<rect width="80" height="80" fill="white"/>
</clipPath>
</defs>
</svg>
